<?xml version="1.0" encoding="UTF-8"?>
<svg width="20px" height="20px" viewBox="0 0 20 20" version="1.1" xmlns="http://www.w3.org/2000/svg" xmlns:xlink="http://www.w3.org/1999/xlink">
    <title>0B521464-C2AB-48AE-9AF4-17452C75CAD5</title>
    <g id="Develop" stroke="none" stroke-width="1" fill="none" fill-rule="evenodd">
        <g id="develop-UI-kit" transform="translate(-696.000000, -2621.000000)" fill-rule="nonzero">
            <g id="Logo/Saleforce" transform="translate(696.000000, 2621.000000)">
                <g id="Salesforce" transform="translate(0.000000, 3.333333)">
                    <path d="M8.32786885,1.53551913 C8.9726776,0.863387978 9.86885246,0.448087432 10.8579235,0.448087432 C12.1748634,0.448087432 13.3224044,1.18032787 13.9344262,2.27322404 C14.4644809,2.03825137 15.0546448,1.90163934 15.6721311,1.90163934 C18.0491803,1.90163934 19.9726776,3.84153005 19.9726776,6.24043716 C19.9726776,8.63387978 18.0491803,10.579235 15.6721311,10.579235 C15.3825137,10.579235 15.0983607,10.5519126 14.8251366,10.4972678 C14.284153,11.4590164 13.2622951,12.1092896 12.0819672,12.1092896 C11.5901639,12.1092896 11.1202186,11.9945355 10.704918,11.7923497 C10.1584699,13.0765027 8.8852459,13.9781421 7.40437158,13.9781421 C5.8579235,13.9781421 4.54644809,13 4.03825137,11.6284153 C3.81967213,11.6775956 3.59016393,11.6994536 3.35519126,11.6994536 C1.51912568,11.6994536 0.0273224044,10.1912568 0.0273224044,8.33333333 C0.0273224044,7.08743169 0.699453552,6 1.69398907,5.42076503 C1.49180328,4.95081967 1.37704918,4.43169399 1.37704918,3.87978142 C1.37704918,1.7431694 3.10928962,0.0109289617 5.25136612,0.0109289617 C6.50273224,0.0163934426 7.61748634,0.612021858 8.32786885,1.53551913" id="XMLID_3_" fill="#00A1E0"></path>
                    <path d="M2.91803279,7.25136612 C2.90710383,7.28415301 2.92349727,7.28961749 2.92896175,7.29508197 C2.96721311,7.32240437 3.00546448,7.3442623 3.04371585,7.36612022 C3.24590164,7.47540984 3.43715847,7.50819672 3.63934426,7.50819672 C4.04918033,7.50819672 4.30054645,7.28961749 4.30054645,6.93989071 L4.30054645,6.93442623 C4.30054645,6.61202186 4.01639344,6.49180328 3.7431694,6.40983607 L3.71038251,6.3989071 C3.50819672,6.33333333 3.33333333,6.27868852 3.33333333,6.1420765 L3.33333333,6.13661202 C3.33333333,6.02185792 3.43715847,5.93989071 3.59562842,5.93989071 C3.7704918,5.93989071 3.98360656,6 4.1147541,6.07103825 C4.1147541,6.07103825 4.15300546,6.09836066 4.16939891,6.06010929 C4.17486339,6.03825137 4.24590164,5.8579235 4.25136612,5.83606557 C4.2568306,5.81420765 4.24590164,5.79781421 4.2295082,5.79234973 C4.07650273,5.69945355 3.86338798,5.63387978 3.64480874,5.63387978 L3.60655738,5.63387978 C3.2295082,5.63387978 2.9726776,5.8579235 2.9726776,6.18579235 L2.9726776,6.19125683 C2.9726776,6.53551913 3.26229508,6.64480874 3.53005464,6.72131148 L3.57377049,6.73224044 C3.7704918,6.79234973 3.93989071,6.84699454 3.93989071,6.98360656 L3.93989071,6.98907104 C3.93989071,7.1147541 3.83060109,7.20765027 3.65027322,7.20765027 C3.57923497,7.20765027 3.36065574,7.20765027 3.12568306,7.05464481 C3.09836066,7.03825137 3.08196721,7.0273224 3.06010929,7.01092896 C3.04918033,7.00546448 3.02185792,6.98907104 3.00546448,7.0273224 L2.91803279,7.25136612 Z" id="XMLID_4_" fill="#FFFFFF"></path>
                    <path d="M8.90710383,7.25136612 C8.89617486,7.28415301 8.91256831,7.28961749 8.91803279,7.29508197 C8.95628415,7.32240437 8.99453552,7.3442623 9.03278689,7.36612022 C9.23497268,7.47540984 9.42622951,7.50819672 9.6284153,7.50819672 C10.0382514,7.50819672 10.2896175,7.28961749 10.2896175,6.93989071 L10.2896175,6.93442623 C10.2896175,6.61202186 10.0054645,6.49180328 9.73224044,6.40983607 L9.69945355,6.3989071 C9.49726776,6.33333333 9.32240437,6.27868852 9.32240437,6.1420765 L9.32240437,6.13661202 C9.32240437,6.02185792 9.42622951,5.93989071 9.58469945,5.93989071 C9.75956284,5.93989071 9.9726776,6 10.1038251,6.07103825 C10.1038251,6.07103825 10.1420765,6.09836066 10.1584699,6.06010929 C10.1639344,6.03825137 10.2349727,5.8579235 10.2404372,5.83606557 C10.2459016,5.81420765 10.2349727,5.79781421 10.2185792,5.79234973 C10.0655738,5.69945355 9.85245902,5.63387978 9.63387978,5.63387978 L9.59562842,5.63387978 C9.21857923,5.63387978 8.96174863,5.8579235 8.96174863,6.18579235 L8.96174863,6.19125683 C8.96174863,6.53551913 9.25136612,6.64480874 9.51912568,6.72131148 L9.56284153,6.73224044 C9.75956284,6.79234973 9.92896175,6.84699454 9.92896175,6.98360656 L9.92896175,6.98907104 C9.92896175,7.1147541 9.81967213,7.20765027 9.63934426,7.20765027 C9.56830601,7.20765027 9.34972678,7.20765027 9.1147541,7.05464481 C9.08743169,7.03825137 9.07103825,7.0273224 9.04918033,7.01092896 C9.04371585,7.00546448 9.00546448,6.99453552 8.99453552,7.0273224 L8.90710383,7.25136612 Z" id="XMLID_5_" fill="#FFFFFF"></path>
                    <path d="M12.9945355,6.56830601 C12.9945355,6.76502732 12.9562842,6.92349727 12.8852459,7.03278689 C12.8142077,7.1420765 12.704918,7.19672131 12.5519126,7.19672131 C12.3989071,7.19672131 12.2896175,7.1420765 12.2185792,7.03278689 C12.147541,6.92349727 12.1092896,6.76502732 12.1092896,6.56830601 C12.1092896,6.3715847 12.147541,6.21311475 12.2185792,6.10382514 C12.2896175,5.99453552 12.3989071,5.94535519 12.5519126,5.94535519 C12.704918,5.94535519 12.8142077,6 12.8852459,6.10382514 C12.9562842,6.21311475 12.9945355,6.3715847 12.9945355,6.56830601 M13.3387978,6.20218579 C13.3060109,6.08743169 13.2513661,5.98907104 13.1857923,5.90710383 C13.1147541,5.82513661 13.0273224,5.75409836 12.9234973,5.70491803 C12.8196721,5.6557377 12.6939891,5.63387978 12.557377,5.63387978 C12.420765,5.63387978 12.295082,5.66120219 12.1912568,5.70491803 C12.0874317,5.75409836 12,5.81967213 11.9289617,5.90710383 C11.8579235,5.98907104 11.8087432,6.09289617 11.7759563,6.20218579 C11.7431694,6.31693989 11.726776,6.43715847 11.726776,6.56830601 C11.726776,6.69945355 11.7431694,6.82513661 11.7759563,6.93442623 C11.8087432,7.04918033 11.863388,7.14754098 11.9289617,7.2295082 C12,7.31147541 12.0874317,7.38251366 12.1912568,7.42622951 C12.295082,7.47540984 12.420765,7.49726776 12.557377,7.49726776 C12.6939891,7.49726776 12.8196721,7.47540984 12.9234973,7.42622951 C13.0273224,7.37704918 13.1147541,7.31147541 13.1857923,7.2295082 C13.2568306,7.14754098 13.3060109,7.04371585 13.3387978,6.93442623 C13.3715847,6.81967213 13.3879781,6.69945355 13.3879781,6.56830601 C13.3879781,6.43715847 13.3715847,6.31147541 13.3387978,6.20218579" id="XMLID_8_" fill="#FFFFFF"></path>
                    <path d="M16.1420765,7.1420765 C16.1311475,7.10928962 16.0983607,7.12021858 16.0983607,7.12021858 C16.0491803,7.13661202 15.9945355,7.15846995 15.9398907,7.16393443 C15.8852459,7.17486339 15.8196721,7.17486339 15.7540984,7.17486339 C15.5901639,7.17486339 15.4590164,7.12568306 15.3661202,7.0273224 C15.273224,6.92896175 15.2185792,6.7704918 15.2185792,6.56284153 C15.2185792,6.3715847 15.2677596,6.22404372 15.3497268,6.1147541 C15.431694,6.00546448 15.557377,5.94535519 15.726776,5.94535519 C15.8688525,5.94535519 15.9726776,5.96174863 16.0874317,5.99453552 C16.0874317,5.99453552 16.1147541,6.00546448 16.1256831,5.9726776 C16.1530055,5.89071038 16.1803279,5.83060109 16.2076503,5.73770492 C16.2185792,5.71038251 16.1967213,5.69945355 16.1857923,5.69945355 C16.1420765,5.68306011 16.0382514,5.6557377 15.9562842,5.63934426 C15.8797814,5.6284153 15.7978142,5.62295082 15.6994536,5.62295082 C15.557377,5.62295082 15.4262295,5.64480874 15.3169399,5.69398907 C15.2076503,5.7431694 15.1147541,5.80874317 15.0437158,5.89071038 C14.9726776,5.9726776 14.9125683,6.07650273 14.8797814,6.18579235 C14.8415301,6.30054645 14.8251366,6.42076503 14.8251366,6.55191257 C14.8251366,6.83606557 14.9016393,7.06557377 15.0546448,7.2295082 C15.2076503,7.3989071 15.431694,7.48087432 15.726776,7.48087432 C15.9016393,7.48087432 16.0819672,7.44808743 16.2076503,7.39344262 C16.2076503,7.39344262 16.2349727,7.38251366 16.2240437,7.35519126 L16.1420765,7.1420765 Z" id="XMLID_9_" fill="#FFFFFF"></path>
                    <path d="M16.7377049,6.37704918 C16.7540984,6.26775956 16.7868852,6.17486339 16.8306011,6.10382514 C16.9016393,5.99453552 17.010929,5.93442623 17.1584699,5.93442623 C17.3114754,5.93442623 17.4098361,5.99453552 17.4808743,6.10382514 C17.5300546,6.17486339 17.5519126,6.27322404 17.557377,6.37704918 L16.7377049,6.37704918 Z M17.8907104,6.13661202 C17.863388,6.0273224 17.7923497,5.91803279 17.7431694,5.86885246 C17.6666667,5.78688525 17.5956284,5.73224044 17.5245902,5.69945355 C17.431694,5.66120219 17.3169399,5.63387978 17.1912568,5.63387978 C17.0491803,5.63387978 16.9180328,5.6557377 16.8087432,5.71038251 C16.704918,5.75956284 16.6120219,5.83060109 16.5409836,5.91256831 C16.4699454,5.99453552 16.4153005,6.09836066 16.3825137,6.21311475 C16.3497268,6.32786885 16.3333333,6.45355191 16.3333333,6.58469945 C16.3333333,6.71584699 16.3497268,6.84153005 16.3879781,6.95628415 C16.420765,7.07103825 16.4808743,7.16939891 16.557377,7.25136612 C16.6338798,7.33333333 16.7322404,7.3989071 16.8469945,7.44262295 C16.9617486,7.4863388 17.1038251,7.50819672 17.2677596,7.50819672 C17.6010929,7.50819672 17.7759563,7.43169399 17.852459,7.39344262 C17.863388,7.38797814 17.8797814,7.3715847 17.863388,7.33879781 L17.7868852,7.12568306 C17.7759563,7.09289617 17.7431694,7.10382514 17.7431694,7.10382514 C17.6612022,7.13661202 17.5409836,7.19125683 17.2677596,7.19125683 C17.0874317,7.19125683 16.9562842,7.13661202 16.8743169,7.05464481 C16.7868852,6.9726776 16.7486339,6.84699454 16.7377049,6.67213115 L17.8961749,6.67213115 C17.8961749,6.67213115 17.9289617,6.67213115 17.9289617,6.63934426 C17.9234973,6.62295082 17.9617486,6.3989071 17.8907104,6.13661202 Z" id="XMLID_12_" fill="#FFFFFF"></path>
                    <path d="M7.48087432,6.37704918 C7.49726776,6.26775956 7.53005464,6.17486339 7.57377049,6.10382514 C7.64480874,5.99453552 7.75409836,5.93442623 7.90163934,5.93442623 C8.05464481,5.93442623 8.15300546,5.99453552 8.22404372,6.10382514 C8.27322404,6.17486339 8.28961749,6.27322404 8.30054645,6.37704918 L7.48087432,6.37704918 Z M8.6284153,6.13661202 C8.6010929,6.0273224 8.53005464,5.91803279 8.48087432,5.86885246 C8.40437158,5.78688525 8.33333333,5.73224044 8.26229508,5.69945355 C8.16939891,5.66120219 8.05464481,5.63387978 7.92896175,5.63387978 C7.78688525,5.63387978 7.6557377,5.6557377 7.54644809,5.71038251 C7.44262295,5.75956284 7.34972678,5.83060109 7.27868852,5.91256831 C7.20765027,5.99453552 7.15300546,6.09836066 7.12021858,6.21311475 C7.08743169,6.32786885 7.07103825,6.45355191 7.07103825,6.58469945 C7.07103825,6.71584699 7.08743169,6.84153005 7.12568306,6.95628415 C7.15846995,7.07103825 7.21857923,7.16939891 7.29508197,7.25136612 C7.3715847,7.33333333 7.46994536,7.3989071 7.58469945,7.44262295 C7.69945355,7.4863388 7.84153005,7.50819672 8.00546448,7.50819672 C8.33879781,7.50819672 8.5136612,7.43169399 8.59016393,7.39344262 C8.6010929,7.38797814 8.61748634,7.3715847 8.6010929,7.33879781 L8.52459016,7.12568306 C8.5136612,7.09289617 8.48087432,7.10382514 8.48087432,7.10382514 C8.3989071,7.13661202 8.27868852,7.19125683 8.00546448,7.19125683 C7.82513661,7.19125683 7.69398907,7.13661202 7.61202186,7.05464481 C7.52459016,6.9726776 7.4863388,6.84699454 7.47540984,6.67213115 L8.63387978,6.67213115 C8.63387978,6.67213115 8.66666667,6.67213115 8.66666667,6.63934426 C8.66666667,6.62295082 8.70491803,6.3989071 8.6284153,6.13661202 Z" id="XMLID_15_" fill="#FFFFFF"></path>
                    <path d="M4.97814208,7.13661202 C4.93442623,7.09836066 4.92896175,7.09289617 4.91256831,7.06557377 C4.89071038,7.03278689 4.87978142,6.97814208 4.87978142,6.91256831 C4.87978142,6.80874317 4.91256831,6.73770492 4.98360656,6.68852459 C4.98360656,6.68852459 5.08196721,6.6010929 5.31693989,6.60655738 C5.48087432,6.60655738 5.6284153,6.63387978 5.6284153,6.63387978 L5.6284153,7.15846995 L5.6284153,7.15846995 C5.6284153,7.15846995 5.48087432,7.19125683 5.31693989,7.20218579 C5.08196721,7.21857923 4.97814208,7.13661202 4.97814208,7.13661202 M5.44262295,6.32240437 C5.39344262,6.31693989 5.33333333,6.31693989 5.26229508,6.31693989 C5.16393443,6.31693989 5.06557377,6.32786885 4.97814208,6.35519126 C4.8852459,6.37704918 4.80874317,6.41530055 4.73770492,6.46448087 C4.66666667,6.5136612 4.61202186,6.57923497 4.56830601,6.6557377 C4.53005464,6.73224044 4.50819672,6.81967213 4.50819672,6.92349727 C4.50819672,7.0273224 4.52459016,7.1147541 4.56284153,7.18579235 C4.59562842,7.2568306 4.65027322,7.31693989 4.71584699,7.36612022 C4.78142077,7.41530055 4.8579235,7.44808743 4.95081967,7.46994536 C5.04371585,7.49180328 5.1420765,7.50273224 5.2568306,7.50273224 C5.37704918,7.50273224 5.49180328,7.49180328 5.60655738,7.47540984 C5.72131148,7.45355191 5.8579235,7.42622951 5.89617486,7.42076503 C5.93442623,7.40983607 5.97814208,7.3989071 5.97814208,7.3989071 C6.00546448,7.39344262 6.00546448,7.36065574 6.00546448,7.36065574 L6.00546448,6.30601093 C6.00546448,6.07650273 5.94535519,5.90163934 5.81967213,5.79781421 C5.69945355,5.69398907 5.51912568,5.63934426 5.28961749,5.63934426 C5.20218579,5.63934426 5.06557377,5.65027322 4.97814208,5.66666667 C4.97814208,5.66666667 4.72677596,5.71584699 4.62295082,5.79781421 C4.62295082,5.79781421 4.6010929,5.81420765 4.61202186,5.84153005 L4.69398907,6.06010929 C4.70491803,6.08743169 4.73224044,6.07650273 4.73224044,6.07650273 C4.73224044,6.07650273 4.7431694,6.07103825 4.74863388,6.06557377 C4.9726776,5.94535519 5.25136612,5.95081967 5.25136612,5.95081967 C5.37704918,5.95081967 5.46994536,5.97814208 5.53551913,6.0273224 C5.6010929,6.07650273 5.6284153,6.14754098 5.6284153,6.30054645 L5.6284153,6.34972678 C5.53005464,6.33333333 5.44262295,6.32240437 5.44262295,6.32240437" id="XMLID_18_" fill="#FFFFFF"></path>
                    <path d="M14.7650273,5.72677596 C14.7759563,5.69945355 14.7540984,5.68852459 14.7486339,5.68306011 C14.726776,5.67759563 14.6284153,5.6557377 14.557377,5.65027322 C14.4098361,5.63934426 14.3333333,5.66666667 14.2568306,5.69945355 C14.1857923,5.73224044 14.1038251,5.78142077 14.0601093,5.84153005 L14.0601093,5.69945355 C14.0601093,5.67759563 14.0437158,5.66666667 14.0273224,5.66666667 L13.7322404,5.66666667 C13.7103825,5.66666667 13.6994536,5.68306011 13.6994536,5.69945355 L13.6994536,7.42622951 C13.6994536,7.44808743 13.715847,7.45901639 13.7322404,7.45901639 L14.0382514,7.45901639 C14.0601093,7.45901639 14.0710383,7.44262295 14.0710383,7.42622951 L14.0710383,6.56284153 C14.0710383,6.44808743 14.0819672,6.33333333 14.1092896,6.2568306 C14.136612,6.18579235 14.1693989,6.12568306 14.2131148,6.08743169 C14.2568306,6.04918033 14.3060109,6.01639344 14.3551913,6 C14.4098361,5.98360656 14.4699454,5.97814208 14.5081967,5.97814208 C14.568306,5.97814208 14.6338798,5.99453552 14.6338798,5.99453552 C14.6557377,5.99453552 14.6666667,5.98360656 14.6775956,5.96174863 C14.6994536,5.91803279 14.7540984,5.75956284 14.7650273,5.72677596" id="XMLID_19_" fill="#FFFFFF"></path>
                    <path d="M11.9125683,4.92896175 C11.8743169,4.91803279 11.8415301,4.91256831 11.7978142,4.90163934 C11.7540984,4.89617486 11.6994536,4.89071038 11.6393443,4.89071038 C11.431694,4.89071038 11.2677596,4.95081967 11.147541,5.06557377 C11.0327869,5.18032787 10.9562842,5.36065574 10.9125683,5.59016393 L10.8961749,5.66666667 L10.6338798,5.66666667 C10.6338798,5.66666667 10.6010929,5.66666667 10.5956284,5.69945355 L10.5519126,5.93989071 C10.5464481,5.96174863 10.557377,5.97814208 10.5901639,5.97814208 L10.8469945,5.97814208 L10.5901639,7.42622951 C10.568306,7.54098361 10.5464481,7.63934426 10.5191257,7.71038251 C10.4918033,7.78142077 10.4699454,7.83606557 10.4371585,7.87431694 C10.4098361,7.91256831 10.3770492,7.93989071 10.3333333,7.95628415 C10.295082,7.96721311 10.2459016,7.97814208 10.1967213,7.97814208 C10.1693989,7.97814208 10.1311475,7.9726776 10.1038251,7.96721311 C10.0765027,7.96174863 10.0601093,7.95628415 10.0437158,7.94535519 C10.0437158,7.94535519 10.0163934,7.93442623 10,7.96174863 C9.98907104,7.98907104 9.92349727,8.17486339 9.91256831,8.19672131 C9.90710383,8.21857923 9.91803279,8.23497268 9.92896175,8.24043716 C9.96174863,8.25136612 9.98907104,8.26229508 10.0327869,8.27322404 C10.0983607,8.28961749 10.1530055,8.28961749 10.2021858,8.28961749 C10.3060109,8.28961749 10.4043716,8.27322404 10.4863388,8.24590164 C10.568306,8.21857923 10.6393443,8.16393443 10.6994536,8.09836066 C10.7650273,8.02185792 10.8087432,7.94535519 10.8469945,7.84153005 C10.8852459,7.73770492 10.9234973,7.60655738 10.9508197,7.45355191 L11.2131148,5.97814208 L11.5956284,5.97814208 C11.5956284,5.97814208 11.6284153,5.97814208 11.6338798,5.94535519 L11.6775956,5.70491803 C11.6830601,5.68306011 11.6721311,5.66666667 11.6393443,5.66666667 L11.2677596,5.66666667 C11.2677596,5.6557377 11.284153,5.53005464 11.3278689,5.40437158 C11.3442623,5.34972678 11.3825137,5.31147541 11.4098361,5.27868852 C11.4371585,5.25136612 11.4699454,5.2295082 11.5081967,5.21857923 C11.5464481,5.20765027 11.5846995,5.20218579 11.6338798,5.20218579 C11.6666667,5.20218579 11.704918,5.20765027 11.726776,5.21311475 C11.7650273,5.21857923 11.7759563,5.22404372 11.7868852,5.2295082 C11.8251366,5.24043716 11.8306011,5.2295082 11.8360656,5.21311475 L11.9234973,4.9726776 C11.9453552,4.93989071 11.9234973,4.92896175 11.9125683,4.92896175" id="XMLID_20_" fill="#FFFFFF"></path>
                    <path d="M6.74863388,7.42622951 C6.74863388,7.44808743 6.73224044,7.45901639 6.71584699,7.45901639 L6.40983607,7.45901639 C6.38797814,7.45901639 6.37704918,7.44262295 6.37704918,7.42622951 L6.37704918,4.95628415 C6.37704918,4.93442623 6.38797814,4.92349727 6.40983607,4.92349727 L6.71584699,4.92349727 C6.73770492,4.92349727 6.74863388,4.93989071 6.74863388,4.95628415 L6.74863388,7.42622951 Z" id="XMLID_21_" fill="#FFFFFF"></path>
                </g>
            </g>
        </g>
    </g>
</svg>